<svg width="1024" height="1024" viewBox="0 0 1024 1024" fill="none" xmlns="http://www.w3.org/2000/svg">
<rect width="1024" height="1024" fill="black"/>
<path d="M238.062 513.469H85.5923V544.404H189.007L85.5923 648.702L128.461 692.897L208.894 612.905V754.768H270.766V544.404L238.062 513.469Z" fill="white" stroke="white" stroke-width="3.02354"/>
<path d="M238.062 510.531H85.5923V479.596H189.007L85.5923 375.297L128.461 331.103L208.894 411.095V269.232H270.766V479.596L238.062 510.531Z" fill="white" stroke="white" stroke-width="3.02354"/>
<path d="M384.654 334.433C403.875 334.433 420.711 337.829 435.162 344.621C449.758 351.269 461.03 360.734 468.979 373.018C477.072 385.157 481.118 399.392 481.118 415.722C481.118 432.052 477.072 446.359 468.979 458.643C461.03 470.782 449.758 480.248 435.162 487.04C420.711 493.688 403.875 497.012 384.654 497.012H303.582V334.433H384.654ZM348.237 478.153L326.776 457.126H388.123C397.805 457.126 406.187 455.464 413.268 452.14C420.494 448.672 426.058 443.83 429.96 437.616C433.862 431.402 435.813 424.104 435.813 415.722C435.813 407.196 433.862 399.898 429.96 393.828C426.058 387.614 420.494 382.845 413.268 379.521C406.187 376.053 397.805 374.319 388.123 374.319H326.776L348.237 353.292V478.153ZM525.753 465.797V429.596H637.824V465.797H525.753ZM612.245 334.433L686.164 497.012H638.257L576.26 353.509H589.267L527.053 497.012H479.147L553.066 334.433H612.245ZM729.274 497.012V417.89H774.363V497.012H729.274ZM652.971 334.433H702.828L761.79 409.436H741.63L800.376 334.433H850.233L766.126 441.301L737.295 441.735L652.971 334.433Z" fill="white"/>
<path d="M325.476 596.896H443.4V634.831H325.476V596.896ZM447.518 530.347V568.282H326.993L348.454 546.821V692.926H303.582V530.347H447.518ZM467.783 526.011H512.221V692.926H467.783V526.011ZM610.285 696.394C594.389 696.394 580.515 693.72 568.665 688.373C556.815 682.882 547.566 675.223 540.918 665.396C534.271 655.424 530.947 644.007 530.947 631.146C530.947 617.995 534.271 606.506 540.918 596.679C547.566 586.852 556.815 579.193 568.665 573.701C580.515 568.209 594.389 565.464 610.285 565.464C626.037 565.464 639.838 568.209 651.689 573.701C663.683 579.193 673.005 586.852 679.652 596.679C686.3 606.506 689.624 617.995 689.624 631.146C689.624 644.007 686.3 655.424 679.652 665.396C673.005 675.223 663.683 682.882 651.689 688.373C639.838 693.72 626.037 696.394 610.285 696.394ZM610.285 663.661C617.511 663.661 623.653 662.361 628.711 659.759C633.913 657.158 637.887 653.401 640.633 648.487C643.379 643.574 644.752 637.793 644.752 631.146C644.752 624.209 643.379 618.356 640.633 613.587C637.887 608.674 633.913 604.916 628.711 602.315C623.653 599.714 617.511 598.413 610.285 598.413C603.059 598.413 596.845 599.714 591.643 602.315C586.44 604.916 582.466 608.674 579.72 613.587C576.975 618.356 575.602 624.137 575.602 630.929C575.602 637.721 576.975 643.574 579.72 648.487C582.466 653.401 586.44 657.158 591.643 659.759C596.845 662.361 603.059 663.661 610.285 663.661ZM872.266 667.997H858.392L893.51 569.149H937.731L891.342 692.926H846.253L807.451 590.176H822.192L782.956 692.926H737.867L691.478 569.149H736.133L771.033 667.997H757.16L793.794 569.149H836.065L872.266 667.997Z" fill="white"/>
</svg>
